<mxfile host="Electron" modified="2023-07-20T01:27:09.871Z" agent="Mozilla/5.0 (Windows NT 10.0; Win64; x64) AppleWebKit/537.36 (KHTML, like Gecko) draw.io/21.2.8 Chrome/112.0.5615.165 Electron/24.2.0 Safari/537.36" etag="TOvDl7CL6VSf80-G2y5V" version="21.2.8" type="device" pages="2">
  <diagram name="Gin" id="PPC8aOzS597hwKT4SyAv">
    <mxGraphModel dx="1646" dy="935" grid="0" gridSize="10" guides="1" tooltips="1" connect="1" arrows="1" fold="1" page="0" pageScale="1" pageWidth="827" pageHeight="1169" math="0" shadow="0">
      <root>
        <mxCell id="0" />
        <mxCell id="1" parent="0" />
        <mxCell id="PY6YnCVwdRs9iA-3CAia-2" value="Gin 框架源码剖析" style="shape=module;align=center;spacingLeft=20;align=center;verticalAlign=middle;whiteSpace=wrap;html=1;fontSize=16;fillColor=#e3c800;strokeColor=none;fontColor=#000000;" vertex="1" parent="1">
          <mxGeometry x="-264" y="-252" width="218" height="48" as="geometry" />
        </mxCell>
        <mxCell id="bJhxecrD83c2lxv7b8i0-3" style="edgeStyle=none;curved=1;rounded=0;orthogonalLoop=1;jettySize=auto;html=1;fontSize=12;startSize=8;endSize=8;" edge="1" parent="1" source="bJhxecrD83c2lxv7b8i0-1" target="bJhxecrD83c2lxv7b8i0-2">
          <mxGeometry relative="1" as="geometry" />
        </mxCell>
        <mxCell id="bJhxecrD83c2lxv7b8i0-5" style="edgeStyle=none;curved=1;rounded=0;orthogonalLoop=1;jettySize=auto;html=1;fontSize=12;startSize=8;endSize=8;exitX=1;exitY=0.28;exitDx=0;exitDy=0;exitPerimeter=0;entryX=0.027;entryY=0.634;entryDx=0;entryDy=0;entryPerimeter=0;" edge="1" parent="1" source="bJhxecrD83c2lxv7b8i0-1" target="bJhxecrD83c2lxv7b8i0-4">
          <mxGeometry relative="1" as="geometry" />
        </mxCell>
        <mxCell id="bJhxecrD83c2lxv7b8i0-1" value="&lt;div style=&quot;color: rgb(212, 212, 212); background-color: rgb(30, 30, 30); font-family: Consolas, &amp;quot;Courier New&amp;quot;, monospace; font-size: 14px; line-height: 19px;&quot;&gt;(engine *Engine) RunFd&lt;/div&gt;" style="text;html=1;align=center;verticalAlign=middle;resizable=0;points=[];autosize=1;strokeColor=none;fillColor=none;fontSize=16;" vertex="1" parent="1">
          <mxGeometry x="-279" y="19" width="187" height="31" as="geometry" />
        </mxCell>
        <mxCell id="bJhxecrD83c2lxv7b8i0-8" style="edgeStyle=none;curved=1;rounded=0;orthogonalLoop=1;jettySize=auto;html=1;entryX=0.002;entryY=0.573;entryDx=0;entryDy=0;entryPerimeter=0;fontSize=12;startSize=8;endSize=8;" edge="1" parent="1" source="bJhxecrD83c2lxv7b8i0-2" target="bJhxecrD83c2lxv7b8i0-7">
          <mxGeometry relative="1" as="geometry" />
        </mxCell>
        <mxCell id="bJhxecrD83c2lxv7b8i0-2" value="&lt;div style=&quot;color: rgb(212, 212, 212); background-color: rgb(30, 30, 30); font-family: Consolas, &amp;quot;Courier New&amp;quot;, monospace; font-size: 14px; line-height: 19px;&quot;&gt;(engine *Engine) RunListener&lt;/div&gt;" style="text;html=1;align=center;verticalAlign=middle;resizable=0;points=[];autosize=1;strokeColor=none;fillColor=none;fontSize=16;" vertex="1" parent="1">
          <mxGeometry x="26" y="26" width="234" height="31" as="geometry" />
        </mxCell>
        <mxCell id="bJhxecrD83c2lxv7b8i0-4" value="&lt;div style=&quot;color: rgb(212, 212, 212); background-color: rgb(30, 30, 30); font-family: Consolas, &amp;quot;Courier New&amp;quot;, monospace; font-size: 14px; line-height: 19px;&quot;&gt;FileListener&lt;/div&gt;" style="text;html=1;align=center;verticalAlign=middle;resizable=0;points=[];autosize=1;strokeColor=none;fillColor=none;fontSize=16;" vertex="1" parent="1">
          <mxGeometry x="39" y="-54" width="110" height="31" as="geometry" />
        </mxCell>
        <mxCell id="bJhxecrD83c2lxv7b8i0-6" value="&lt;div style=&quot;color: rgb(212, 212, 212); background-color: rgb(30, 30, 30); font-family: Consolas, &amp;quot;Courier New&amp;quot;, monospace; font-size: 14px; line-height: 19px;&quot;&gt;(engine *Engine) Handler()&lt;/div&gt;" style="text;html=1;align=center;verticalAlign=middle;resizable=0;points=[];autosize=1;strokeColor=none;fillColor=none;fontSize=16;" vertex="1" parent="1">
          <mxGeometry x="798" y="46" width="218" height="31" as="geometry" />
        </mxCell>
        <mxCell id="bJhxecrD83c2lxv7b8i0-9" style="edgeStyle=none;curved=1;rounded=0;orthogonalLoop=1;jettySize=auto;html=1;fontSize=12;startSize=8;endSize=8;" edge="1" parent="1" source="bJhxecrD83c2lxv7b8i0-7" target="bJhxecrD83c2lxv7b8i0-6">
          <mxGeometry relative="1" as="geometry" />
        </mxCell>
        <mxCell id="bJhxecrD83c2lxv7b8i0-7" value="&lt;div style=&quot;color: rgb(212, 212, 212); background-color: rgb(30, 30, 30); font-family: Consolas, &amp;quot;Courier New&amp;quot;, monospace; font-size: 14px; line-height: 19px;&quot;&gt;server.go&lt;/div&gt;&lt;div style=&quot;color: rgb(212, 212, 212); background-color: rgb(30, 30, 30); font-family: Consolas, &amp;quot;Courier New&amp;quot;, monospace; font-size: 14px; line-height: 19px;&quot;&gt;Serve(l net.Listener, handler Handler)&lt;/div&gt;" style="text;html=1;align=center;verticalAlign=middle;resizable=0;points=[];autosize=1;strokeColor=none;fillColor=none;fontSize=16;" vertex="1" parent="1">
          <mxGeometry x="404" y="57" width="311" height="50" as="geometry" />
        </mxCell>
        <mxCell id="bJhxecrD83c2lxv7b8i0-10" value="&lt;div style=&quot;color: rgb(212, 212, 212); background-color: rgb(30, 30, 30); font-family: Consolas, &amp;quot;Courier New&amp;quot;, monospace; font-size: 14px; line-height: 19px;&quot;&gt;&lt;div&gt;type &lt;span style=&quot;color: #4ec9b0;&quot;&gt;Listener&lt;/span&gt; &lt;span style=&quot;color: #569cd6;&quot;&gt;interface&lt;/span&gt; {&lt;/div&gt;&lt;div&gt;&amp;nbsp; &amp;nbsp; &lt;span style=&quot;color: #6a9955;&quot;&gt;// Accept waits for and returns the next connection to the listener.&lt;/span&gt;&lt;/div&gt;&lt;div&gt;&amp;nbsp; &amp;nbsp; &lt;span style=&quot;color: #dcdcaa;&quot;&gt;Accept&lt;/span&gt;() (Conn, &lt;span style=&quot;color: #4ec9b0;&quot;&gt;error&lt;/span&gt;)&lt;/div&gt;&lt;br&gt;&lt;div&gt;&amp;nbsp; &amp;nbsp; &lt;span style=&quot;color: #6a9955;&quot;&gt;// Close closes the listener.&lt;/span&gt;&lt;/div&gt;&lt;div&gt;&amp;nbsp; &amp;nbsp; &lt;span style=&quot;color: #6a9955;&quot;&gt;// Any blocked Accept operations will be unblocked and return errors.&lt;/span&gt;&lt;/div&gt;&lt;div&gt;&amp;nbsp; &amp;nbsp; &lt;span style=&quot;color: #dcdcaa;&quot;&gt;Close&lt;/span&gt;() &lt;span style=&quot;color: #4ec9b0;&quot;&gt;error&lt;/span&gt;&lt;/div&gt;&lt;br&gt;&lt;div&gt;&amp;nbsp; &amp;nbsp; &lt;span style=&quot;color: #6a9955;&quot;&gt;// Addr returns the listener&#39;s network address.&lt;/span&gt;&lt;/div&gt;&lt;div&gt;&amp;nbsp; &amp;nbsp; &lt;span style=&quot;color: #dcdcaa;&quot;&gt;Addr&lt;/span&gt;() Addr&lt;/div&gt;&lt;div&gt;}&lt;/div&gt;&lt;/div&gt;" style="text;html=1;align=left;verticalAlign=middle;resizable=0;points=[];autosize=1;strokeColor=none;fillColor=none;fontSize=16;" vertex="1" parent="1">
          <mxGeometry x="1262" y="-396" width="580" height="221" as="geometry" />
        </mxCell>
        <mxCell id="bJhxecrD83c2lxv7b8i0-11" value="连接都在 net package 下实现的&lt;br&gt;net.go&lt;br&gt;" style="text;html=1;align=center;verticalAlign=middle;resizable=0;points=[];autosize=1;strokeColor=none;fillColor=none;fontSize=16;" vertex="1" parent="1">
          <mxGeometry x="678" y="-375" width="242" height="50" as="geometry" />
        </mxCell>
      </root>
    </mxGraphModel>
  </diagram>
  <diagram id="v41NNkr-ATtX2WHc2TSP" name="Page-2">
    <mxGraphModel dx="794" dy="535" grid="0" gridSize="10" guides="1" tooltips="1" connect="1" arrows="1" fold="1" page="0" pageScale="1" pageWidth="827" pageHeight="1169" math="0" shadow="0">
      <root>
        <mxCell id="0" />
        <mxCell id="1" parent="0" />
      </root>
    </mxGraphModel>
  </diagram>
</mxfile>
